<mxfile host="app.diagrams.net" agent="Mozilla/5.0 (Macintosh; Intel Mac OS X 10_15_7) AppleWebKit/537.36 (KHTML, like Gecko) Chrome/128.0.0.0 Safari/537.36" version="24.7.8" pages="2">
  <diagram name="Ethique et création de valeur" id="2Bv8oGvKT3uj6jVTQMCg">
    <mxGraphModel dx="954" dy="580" grid="1" gridSize="10" guides="1" tooltips="1" connect="1" arrows="1" fold="1" page="1" pageScale="1" pageWidth="827" pageHeight="1169" math="0" shadow="0">
      <root>
        <mxCell id="0" />
        <mxCell id="1" parent="0" />
        <mxCell id="YhaYp33383aVtSF1S5Rb-2" style="edgeStyle=orthogonalEdgeStyle;rounded=0;orthogonalLoop=1;jettySize=auto;html=1;strokeWidth=3;" parent="1" source="YhaYp33383aVtSF1S5Rb-1" edge="1">
          <mxGeometry relative="1" as="geometry">
            <mxPoint x="380" y="230" as="targetPoint" />
          </mxGeometry>
        </mxCell>
        <mxCell id="YhaYp33383aVtSF1S5Rb-1" value="&lt;font style=&quot;font-size: 19px;&quot;&gt;Ethique&lt;/font&gt;" style="text;html=1;align=center;verticalAlign=middle;whiteSpace=wrap;rounded=1;strokeColor=default;" parent="1" vertex="1">
          <mxGeometry x="160" y="200" width="160" height="60" as="geometry" />
        </mxCell>
        <mxCell id="YhaYp33383aVtSF1S5Rb-5" value="" style="edgeStyle=orthogonalEdgeStyle;rounded=0;orthogonalLoop=1;jettySize=auto;html=1;strokeWidth=3;" parent="1" source="YhaYp33383aVtSF1S5Rb-3" target="YhaYp33383aVtSF1S5Rb-4" edge="1">
          <mxGeometry relative="1" as="geometry" />
        </mxCell>
        <mxCell id="YhaYp33383aVtSF1S5Rb-3" value="&lt;font style=&quot;font-size: 19px;&quot;&gt;Confiance&lt;/font&gt;" style="text;html=1;align=center;verticalAlign=middle;whiteSpace=wrap;rounded=1;strokeColor=default;" parent="1" vertex="1">
          <mxGeometry x="380" y="200" width="160" height="60" as="geometry" />
        </mxCell>
        <mxCell id="YhaYp33383aVtSF1S5Rb-4" value="&lt;font style=&quot;font-size: 19px;&quot;&gt;Création de valeur&lt;/font&gt;" style="text;html=1;align=center;verticalAlign=middle;whiteSpace=wrap;rounded=1;strokeColor=default;" parent="1" vertex="1">
          <mxGeometry x="600" y="200" width="160" height="60" as="geometry" />
        </mxCell>
      </root>
    </mxGraphModel>
  </diagram>
  <diagram id="0p3VZiqYlpUzxZhjHwBp" name="Ethique et Société">
    <mxGraphModel dx="954" dy="580" grid="1" gridSize="10" guides="1" tooltips="1" connect="1" arrows="1" fold="1" page="1" pageScale="1" pageWidth="827" pageHeight="1169" math="0" shadow="0">
      <root>
        <mxCell id="0" />
        <mxCell id="1" parent="0" />
        <mxCell id="J5e9pOw6ii3n4gVRZdJH-8" value="Ambition de la déclaration de Montréal" style="rounded=0;whiteSpace=wrap;html=1;verticalAlign=top;fontSize=17;fontStyle=1" vertex="1" parent="1">
          <mxGeometry x="570" y="100" width="370" height="340" as="geometry" />
        </mxCell>
        <mxCell id="J5e9pOw6ii3n4gVRZdJH-7" value="L&#39;IA en 2018" style="rounded=0;whiteSpace=wrap;html=1;verticalAlign=top;fontSize=17;fontStyle=1" vertex="1" parent="1">
          <mxGeometry x="190" y="100" width="370" height="340" as="geometry" />
        </mxCell>
        <mxCell id="J5e9pOw6ii3n4gVRZdJH-1" value="&lt;font style=&quot;font-size: 21px;&quot;&gt;&lt;b&gt;Economie&lt;/b&gt;&lt;/font&gt;" style="ellipse;whiteSpace=wrap;html=1;aspect=fixed;gradientColor=none;" vertex="1" parent="1">
          <mxGeometry x="230" y="130" width="170" height="170" as="geometry" />
        </mxCell>
        <mxCell id="J5e9pOw6ii3n4gVRZdJH-2" value="&lt;font style=&quot;font-size: 21px;&quot;&gt;&lt;b&gt;Technologie&lt;/b&gt;&lt;/font&gt;" style="ellipse;whiteSpace=wrap;html=1;aspect=fixed;" vertex="1" parent="1">
          <mxGeometry x="370" y="130" width="170" height="170" as="geometry" />
        </mxCell>
        <mxCell id="J5e9pOw6ii3n4gVRZdJH-5" value="&lt;font style=&quot;font-size: 21px;&quot;&gt;&lt;b&gt;Economie&lt;/b&gt;&lt;/font&gt;" style="ellipse;whiteSpace=wrap;html=1;aspect=fixed;gradientColor=none;" vertex="1" parent="1">
          <mxGeometry x="595" y="135" width="170" height="170" as="geometry" />
        </mxCell>
        <mxCell id="J5e9pOw6ii3n4gVRZdJH-6" value="&lt;font style=&quot;font-size: 21px;&quot;&gt;&lt;b&gt;Technologie&lt;/b&gt;&lt;/font&gt;" style="ellipse;whiteSpace=wrap;html=1;aspect=fixed;" vertex="1" parent="1">
          <mxGeometry x="735" y="135" width="170" height="170" as="geometry" />
        </mxCell>
        <mxCell id="J5e9pOw6ii3n4gVRZdJH-3" value="&lt;font style=&quot;font-size: 21px;&quot;&gt;&lt;b&gt;Société&lt;/b&gt;&lt;/font&gt;" style="ellipse;whiteSpace=wrap;html=1;aspect=fixed;" vertex="1" parent="1">
          <mxGeometry x="605" y="235" width="170" height="170" as="geometry" />
        </mxCell>
        <mxCell id="J5e9pOw6ii3n4gVRZdJH-4" value="&lt;font style=&quot;font-size: 21px;&quot;&gt;&lt;b&gt;Ecologie&lt;/b&gt;&lt;/font&gt;" style="ellipse;whiteSpace=wrap;html=1;aspect=fixed;" vertex="1" parent="1">
          <mxGeometry x="745" y="235" width="170" height="170" as="geometry" />
        </mxCell>
      </root>
    </mxGraphModel>
  </diagram>
</mxfile>
